<?xml version="1.0" standalone="no"?>
<!DOCTYPE svg PUBLIC "-//W3C//DTD SVG 20010904//EN"
 "http://www.w3.org/TR/2001/REC-SVG-20010904/DTD/svg10.dtd">
<svg version="1.0" xmlns="http://www.w3.org/2000/svg"
 width="300.000000pt" height="273.000000pt" viewBox="0 0 300.000000 273.000000"
 preserveAspectRatio="xMidYMid meet">
<metadata>
Created by potrace 1.10, written by Peter Selinger 2001-2011
</metadata>
<g transform="translate(0.000000,273.000000) scale(0.050000,-0.050000)"
fill="#fffaf0" stroke="none">
<path d="M1776 5325 c-8 -20 15 -2749 34 -4060 l16 -1065 -740 3 c-760 3 -786
1 -786 -63 0 -53 -96 -51 1665 -40 l1625 10 6 50 6 50 -827 -7 -827 -6 -25
1706 c-14 939 -24 2076 -23 2527 1 451 1 840 1 865 -1 44 -108 70 -125 30z"/>
</g>
</svg>
