<?xml version="1.0" standalone="no"?>
<!DOCTYPE svg PUBLIC "-//W3C//DTD SVG 20010904//EN"
 "http://www.w3.org/TR/2001/REC-SVG-20010904/DTD/svg10.dtd">
<svg version="1.0" xmlns="http://www.w3.org/2000/svg"
 width="300.000000pt" height="273.000000pt" viewBox="0 0 300.000000 273.000000"
 preserveAspectRatio="xMidYMid meet">
<metadata>
Created by potrace 1.10, written by Peter Selinger 2001-2011
</metadata>
<g transform="translate(0.000000,273.000000) scale(0.050000,-0.050000)"
fill="#fffaf0" stroke="none">
<path d="M1778 5327 c-10 -21 11 -2643 32 -4062 l16 -1065 -740 3 c-760 3
-786 1 -786 -63 0 -53 -96 -51 1665 -40 l1625 10 6 50 6 50 -827 -7 -827 -6
-25 1656 c-13 912 -24 1822 -23 2025 l0 367 135 152 c74 83 208 228 297 322
260 276 400 431 420 465 16 29 104 31 908 21 l890 -11 -4 -242 -4 -242 -77
-32 c-358 -152 -250 -675 141 -678 394 -2 495 606 114 690 l-60 13 0 297 c0
164 -7 302 -15 307 -29 17 -2860 38 -2867 20z m842 -119 c0 -7 -48 -63 -107
-125 -58 -62 -179 -189 -267 -283 -89 -93 -200 -215 -246 -270 -47 -55 -91
-102 -98 -105 -7 -3 -12 175 -12 395 l0 400 365 0 c201 0 365 -6 365 -12z
m2109 -648 c158 -60 165 -316 11 -407 -118 -70 -317 -16 -360 98 -84 220 116
398 349 309z"/>
</g>
</svg>
