<?xml version="1.0" standalone="no"?>
<!DOCTYPE svg PUBLIC "-//W3C//DTD SVG 20010904//EN"
 "http://www.w3.org/TR/2001/REC-SVG-20010904/DTD/svg10.dtd">
<svg version="1.0" xmlns="http://www.w3.org/2000/svg"
 width="300.000000pt" height="273.000000pt" viewBox="0 0 300.000000 273.000000"
 preserveAspectRatio="xMidYMid meet">
<metadata>
Created by potrace 1.10, written by Peter Selinger 2001-2011
</metadata>
<g transform="translate(0.000000,273.000000) scale(0.050000,-0.050000)"
fill="#fffaf0" stroke="none">
<path d="M1778 5327 c-10 -21 11 -2643 32 -4062 l16 -1065 -740 3 c-407 1
-751 -3 -763 -11 -31 -19 -29 -92 2 -92 603 -6 3242 4 3262 12 29 11 33 55 7
81 -8 8 -382 12 -830 9 l-816 -5 -25 1666 c-13 917 -24 1828 -23 2025 l0 357
135 152 c74 83 208 228 297 322 265 280 428 463 428 481 0 14 1759 4 1776 -11
4 -3 7 -111 7 -242 l0 -236 -76 -33 c-298 -129 -298 -545 -1 -646 l75 -25 5
-214 c2 -117 3 -213 1 -213 -2 0 -98 55 -215 122 -215 125 -281 139 -268 55 4
-29 43 -63 116 -102 285 -154 383 -219 371 -248 -6 -17 -11 -230 -11 -474 l0
-443 -213 -350 c-117 -192 -261 -427 -320 -522 -123 -198 -133 -244 -53 -234
39 4 68 30 107 96 29 50 142 234 250 410 108 176 219 362 248 413 l52 94 44
-50 c25 -28 45 -58 45 -67 0 -9 7 -20 16 -23 8 -4 69 -79 135 -167 65 -88 133
-174 149 -192 17 -18 96 -120 177 -225 145 -190 204 -231 231 -160 11 28 -8
62 -112 197 -28 36 -159 199 -193 240 -18 23 -86 113 -152 200 -65 88 -124
165 -131 170 -7 6 -45 54 -86 108 l-74 98 0 457 c0 457 0 458 45 475 25 10
140 62 255 116 116 55 239 111 275 125 83 33 95 121 17 121 -36 0 -482 -196
-577 -253 -8 -5 -15 90 -15 211 l0 220 85 38 c302 133 285 586 -25 654 l-60
13 0 297 c0 164 -7 302 -15 307 -29 17 -2860 38 -2867 20z m842 -120 c0 -7
-115 -133 -255 -281 -140 -148 -299 -320 -352 -383 -54 -62 -104 -115 -110
-118 -7 -3 -13 175 -13 395 l0 400 365 0 c201 0 365 -6 365 -13z m2109 -647
c158 -60 165 -316 11 -407 -118 -70 -317 -16 -360 98 -84 220 116 398 349 309z"/>
</g>
</svg>
