<?xml version="1.0" standalone="no"?>
<!DOCTYPE svg PUBLIC "-//W3C//DTD SVG 20010904//EN"
 "http://www.w3.org/TR/2001/REC-SVG-20010904/DTD/svg10.dtd">
<svg version="1.0" xmlns="http://www.w3.org/2000/svg"
 width="300.000000pt" height="273.000000pt" viewBox="0 0 300.000000 273.000000"
 preserveAspectRatio="xMidYMid meet">
<metadata>
Created by potrace 1.10, written by Peter Selinger 2001-2011
</metadata>
<g transform="translate(0.000000,273.000000) scale(0.050000,-0.050000)"
fill="#fffaf0" stroke="none">
<path d="M1778 5327 c-10 -21 11 -2643 32 -4062 l16 -1065 -740 3 c-760 3
-786 1 -786 -63 0 -53 -96 -51 1665 -40 l1625 10 6 50 6 50 -827 -7 -827 -6
-25 1656 c-29 2005 -30 2401 -3 2417 13 8 12 27 -3 55 -14 27 -23 192 -25 468
l-2 425 390 6 c215 4 561 0 770 -8 209 -9 657 -18 995 -21 l615 -5 0 54 c0 29
-7 58 -15 63 -29 17 -2860 38 -2867 20z"/>
</g>
</svg>
